<?xml version="1.0" standalone="no"?>
<!DOCTYPE svg PUBLIC "-//W3C//DTD SVG 20010904//EN"
 "http://www.w3.org/TR/2001/REC-SVG-20010904/DTD/svg10.dtd">
<svg version="1.0" xmlns="http://www.w3.org/2000/svg"
 width="572.000000pt" height="569.000000pt" viewBox="0 0 572.000000 569.000000"
 preserveAspectRatio="xMidYMid meet">

<g transform="translate(0.000000,569.000000) scale(0.100000,-0.100000)"
fill="#000000" stroke="none">
<path d="M3190 5410 c0 -5 7 -10 15 -10 8 0 15 5 15 10 0 6 -7 10 -15 10 -8 0
-15 -4 -15 -10z"/>
<path d="M3270 5325 c0 -8 5 -15 10 -15 6 0 10 7 10 15 0 8 -4 15 -10 15 -5 0
-10 -7 -10 -15z"/>
<path d="M2992 5317 c-11 -13 -118 -15 -130 -2 -3 2 -11 0 -18 -6 -8 -6 -58
-12 -112 -13 -54 -1 -102 -5 -107 -8 -6 -3 -39 -5 -73 -6 -35 0 -69 -5 -74
-10 -8 -8 -17 -8 -32 0 -15 8 -21 8 -24 -1 -2 -7 -29 -11 -70 -11 -42 0 -71
-5 -81 -14 -22 -19 -109 -37 -118 -23 -4 6 -16 -2 -30 -19 -18 -23 -25 -26
-32 -15 -5 8 -14 10 -21 6 -7 -4 -26 -8 -41 -7 -21 0 -29 -4 -30 -16 0 -12 -3
-11 -9 6 -13 31 -44 30 -36 -2 4 -16 -1 -32 -13 -47 l-19 -23 -7 32 c-8 37
-35 44 -35 9 0 -30 -25 -53 -66 -61 -18 -4 -40 -16 -50 -27 -9 -10 -23 -19
-31 -19 -7 0 -13 -4 -13 -10 0 -5 -7 -10 -15 -10 -18 0 -20 17 -3 22 6 2 8 10
4 17 -14 22 -47 -17 -39 -46 3 -16 1 -28 -8 -34 -22 -14 -39 -11 -39 7 0 23
-44 14 -49 -11 -2 -11 -15 -34 -29 -53 -20 -26 -30 -32 -49 -27 -18 4 -23 1
-23 -14 0 -10 -20 -37 -45 -60 -25 -23 -43 -47 -39 -52 11 -18 -27 -49 -51
-43 -16 4 -26 -1 -39 -21 -9 -14 -14 -29 -12 -34 3 -5 -2 -8 -11 -7 -9 0 -22
-8 -28 -19 -22 -43 -48 -75 -59 -75 -6 -1 -27 -21 -46 -46 -87 -113 -114 -143
-146 -160 -34 -18 -51 -45 -40 -63 11 -17 -6 -40 -35 -46 -34 -8 -46 -23 -25
-31 9 -3 16 -13 16 -21 0 -10 -6 -13 -16 -9 -16 6 -56 -30 -114 -104 -21 -26
-27 -43 -23 -63 4 -22 9 -26 26 -21 18 6 19 3 13 -27 -8 -41 -13 -46 -34 -33
-11 7 -26 8 -42 2 l-25 -9 28 -21 c30 -22 35 -38 12 -38 -8 0 -15 -5 -15 -10
0 -6 6 -10 14 -8 8 2 15 -1 15 -7 1 -5 -4 -10 -11 -10 -7 0 -13 -18 -15 -44
-2 -29 -11 -53 -24 -68 -15 -15 -19 -26 -12 -35 17 -23 8 -99 -14 -117 -15
-12 -19 -26 -17 -60 2 -24 5 -46 8 -48 3 -3 -2 -12 -10 -20 -11 -12 -13 -27
-8 -62 5 -38 4 -44 -7 -33 -15 14 -49 16 -49 3 0 -5 7 -12 16 -15 11 -4 15
-14 12 -31 -3 -14 1 -30 9 -36 11 -10 11 -15 -4 -32 -13 -15 -15 -21 -5 -24 6
-3 12 -16 12 -29 0 -25 -15 -33 -23 -11 -3 7 -6 6 -6 -5 -1 -9 3 -19 8 -23 10
-6 11 -15 11 -75 0 -19 4 -41 9 -49 7 -10 5 -19 -6 -27 -15 -10 -15 -15 2 -50
11 -23 20 -68 21 -108 2 -38 9 -75 15 -82 14 -17 -4 -44 -30 -44 -14 0 -14 -2
-1 -10 8 -5 26 -10 39 -10 22 0 23 -1 7 -25 -18 -28 -21 -66 -6 -81 6 -6 12
-37 14 -70 6 -91 16 -138 37 -165 10 -13 19 -18 19 -11 0 6 5 12 11 12 6 0 8
-9 4 -20 -4 -11 -2 -20 4 -20 23 0 51 -41 51 -75 0 -18 6 -38 14 -42 7 -4 23
-30 35 -56 12 -26 33 -58 46 -69 26 -23 36 -49 10 -28 -12 10 -16 9 -21 -3 -9
-24 3 -35 31 -29 18 3 25 0 25 -12 0 -9 -5 -16 -11 -16 -5 0 -8 -4 -4 -10 3
-5 12 -7 20 -4 9 4 18 -1 22 -12 6 -16 38 -52 134 -151 12 -12 18 -27 13 -34
-15 -24 -14 -73 2 -90 9 -10 18 -37 21 -61 2 -24 8 -52 13 -63 11 -25 30 -196
30 -268 0 -37 5 -59 15 -67 33 -27 40 3 36 155 -2 119 0 145 11 145 10 0 13
11 11 38 -2 20 0 31 3 25 3 -7 12 -13 19 -13 23 0 55 -42 55 -72 0 -30 -9 -35
-28 -16 -9 9 -12 8 -12 -6 0 -15 5 -17 30 -12 22 4 30 2 30 -9 0 -8 5 -15 10
-15 6 0 10 5 10 10 0 6 9 10 21 10 18 0 20 -4 15 -25 -5 -20 -3 -25 13 -25 11
0 21 8 23 17 3 15 4 15 21 -1 13 -14 15 -21 6 -32 -17 -21 0 -36 37 -32 21 2
35 -1 38 -9 3 -7 12 -13 21 -13 8 0 15 -6 15 -14 0 -9 12 -13 40 -12 50 1 72
-18 44 -39 -17 -13 -17 -14 -1 -15 9 0 17 5 17 10 0 21 26 9 42 -21 13 -23 23
-29 37 -24 22 7 151 -36 190 -63 14 -9 49 -28 76 -42 40 -20 51 -31 55 -55 6
-30 6 -30 20 -8 16 24 42 17 55 -14 18 -47 34 -226 35 -391 0 -166 2 -183 17
-180 25 5 33 46 47 273 8 116 17 218 21 228 16 40 132 62 165 32 15 -13 22
-14 45 -3 23 10 28 10 36 -5 6 -9 21 -17 34 -17 13 0 27 -5 30 -10 3 -6 15
-10 25 -10 10 0 22 -9 25 -20 8 -25 27 -27 23 -2 -2 14 4 17 35 16 31 -1 37 2
38 20 1 18 2 19 6 2 4 -16 11 -18 49 -12 34 4 46 2 50 -9 7 -16 34 -21 34 -6
0 19 39 22 65 5 20 -13 28 -14 39 -4 23 18 61 9 62 -17 1 -12 4 -29 7 -38 18
-46 37 -236 37 -371 0 -84 3 -159 6 -168 3 -9 14 -16 25 -16 24 0 27 22 33
250 5 190 24 324 51 363 8 12 15 29 15 39 0 19 34 25 45 8 12 -19 25 -10 25
18 0 38 9 46 31 26 17 -15 21 -15 57 4 25 13 44 17 53 11 20 -13 29 -11 29 6
0 8 6 15 14 15 7 0 19 6 26 14 6 8 26 16 43 18 25 2 31 7 29 21 -3 15 0 17 16
8 16 -8 28 -5 59 18 l39 28 17 -20 c9 -12 17 -35 17 -52 0 -16 8 -70 16 -120
9 -52 17 -163 19 -263 3 -181 9 -207 43 -186 15 10 18 38 23 240 7 297 30 465
66 478 9 4 21 2 27 -4 14 -14 32 -12 50 6 22 21 20 33 -6 43 -19 7 -17 10 26
39 26 18 52 32 59 32 7 0 20 14 29 30 10 18 23 28 31 25 7 -3 28 10 45 30 18
19 39 35 47 35 8 0 15 4 15 9 0 10 134 151 144 151 3 0 6 -6 6 -14 0 -12 20
-26 36 -26 11 0 2 31 -11 36 -24 10 -17 33 11 40 19 5 24 11 21 26 -4 13 2 22
18 30 15 7 21 16 17 26 -4 12 -1 14 13 9 26 -11 45 10 39 41 -4 20 1 33 20 51
14 14 26 32 26 42 0 9 11 24 25 33 14 9 25 21 25 26 0 22 52 92 81 109 18 11
26 22 20 25 -16 10 -13 43 4 50 8 3 15 12 15 20 0 7 6 16 13 19 12 4 38 78 43
122 3 33 23 65 39 65 17 0 21 35 5 45 -13 8 -1 35 17 35 11 0 12 8 7 35 -5 27
-3 35 8 35 23 0 36 42 31 101 -3 41 1 67 17 103 15 37 18 52 9 62 -10 13 -6
18 14 15 11 -2 9 17 -3 24 -11 7 -4 89 8 110 4 6 5 20 3 33 -1 15 3 22 13 22
9 0 16 7 16 15 0 8 -7 15 -15 15 -18 0 -17 -1 -20 68 -1 33 3 56 11 63 8 7 11
21 8 35 -4 15 -2 24 5 24 17 0 13 22 -9 50 -27 35 -25 59 8 71 26 10 26 11 8
25 -11 8 -25 14 -31 14 -6 0 -16 19 -22 43 -9 34 -9 45 3 58 8 8 14 28 14 42
0 28 -13 36 -26 16 -10 -17 -33 59 -35 119 -1 28 -5 52 -9 52 -13 0 -20 62 -9
76 8 10 9 14 0 14 -22 0 -51 40 -51 71 0 17 -9 44 -21 60 -14 20 -19 38 -15
53 4 15 -1 32 -14 49 -11 14 -20 35 -20 46 0 12 -4 21 -9 21 -16 0 -55 74 -56
105 0 19 -5 30 -14 30 -8 0 -23 17 -33 37 -11 20 -37 56 -59 80 -21 24 -39 48
-39 53 0 6 -9 16 -20 23 -11 7 -20 18 -20 26 0 8 -11 21 -25 30 -36 24 -65 58
-65 77 0 9 -16 27 -36 38 -20 12 -41 34 -47 50 -6 16 -22 32 -39 39 -18 7 -34
23 -41 41 -7 19 -19 31 -29 31 -10 0 -18 4 -18 9 0 5 -13 12 -29 16 -21 4 -35
17 -49 46 -11 22 -23 35 -27 29 -4 -6 -17 1 -35 19 -16 16 -50 39 -75 51 -25
12 -50 31 -56 41 -6 11 -18 19 -27 18 -30 -3 -39 1 -66 26 -15 14 -39 28 -54
32 -15 3 -83 35 -152 69 -79 40 -132 61 -145 58 -15 -4 -27 3 -43 25 -22 30
-52 42 -52 21 0 -5 -7 -10 -15 -10 -8 0 -15 4 -15 9 0 5 -19 9 -42 9 -119 1
-183 17 -194 47 -6 14 -8 14 -18 -1 -11 -14 -15 -13 -43 10 -24 21 -33 23 -41
13z m-268 -435 c7 -11 227 -9 244 1 18 12 43 1 36 -17 -5 -13 -1 -13 26 -3 26
10 33 9 40 -3 6 -11 27 -17 73 -18 97 -4 149 -22 166 -57 27 -55 40 -149 41
-276 0 -100 3 -129 15 -139 31 -25 42 4 48 127 6 110 28 247 41 261 4 3 31 -2
61 -12 60 -18 134 -74 127 -95 -3 -9 2 -11 16 -7 11 4 29 3 39 -2 10 -5 35
-17 56 -26 21 -9 40 -23 43 -31 4 -8 12 -15 18 -15 20 0 135 -117 142 -145 4
-18 11 -24 23 -20 10 3 26 -3 37 -15 10 -11 25 -26 32 -33 69 -64 93 -99 87
-127 -4 -20 2 -31 30 -54 19 -16 35 -38 35 -48 0 -10 4 -18 8 -18 5 0 18 -9
30 -20 17 -16 19 -25 13 -43 -9 -24 7 -57 28 -57 15 0 32 -45 25 -65 -9 -22
24 -31 40 -10 11 15 14 13 25 -23 8 -22 10 -45 6 -51 -3 -6 4 -20 16 -30 20
-16 22 -22 12 -44 -10 -22 -10 -24 7 -20 14 4 23 -2 31 -23 6 -16 16 -39 22
-51 12 -26 3 -53 -18 -53 -8 0 -15 -4 -15 -8 0 -5 14 -7 30 -4 27 4 30 1 30
-22 0 -14 -4 -26 -8 -26 -5 0 -8 -17 -6 -37 1 -21 2 -48 3 -60 1 -13 7 -23 16
-23 18 0 26 -30 22 -95 -1 -30 -8 -55 -17 -62 -13 -10 -11 -16 13 -38 15 -14
27 -29 27 -33 -1 -18 -29 -42 -49 -42 -12 0 -21 -6 -21 -15 0 -17 16 -20 25
-5 3 6 13 10 21 10 19 0 18 -54 -2 -85 -14 -21 -14 -26 1 -54 8 -17 11 -31 6
-31 -5 0 -10 -15 -10 -32 0 -63 -6 -116 -13 -124 -5 -4 -8 -17 -8 -29 0 -11
-5 -26 -12 -33 -8 -8 -8 -15 0 -25 13 -15 -8 -81 -50 -162 -12 -22 -26 -60
-33 -85 -7 -30 -17 -45 -27 -45 -24 0 -34 -15 -18 -25 12 -7 12 -12 2 -22 -6
-6 -12 -22 -12 -34 0 -28 -108 -164 -130 -164 -13 0 -13 -17 0 -22 17 -6 -1
-48 -21 -48 -11 0 -23 -10 -28 -24 -5 -13 -17 -26 -25 -29 -9 -4 -16 -13 -16
-20 0 -8 -7 -20 -15 -27 -8 -7 -12 -16 -9 -21 7 -13 -23 -42 -36 -34 -5 3 -10
-1 -10 -10 0 -8 -7 -18 -15 -21 -8 -4 -15 -11 -15 -18 0 -6 -16 -22 -35 -35
-19 -13 -35 -32 -35 -41 0 -19 -26 -34 -41 -24 -5 3 -9 -1 -9 -9 0 -14 -60
-67 -75 -67 -4 0 -14 -9 -23 -20 -11 -13 -36 -24 -67 -29 -27 -5 -40 -9 -27
-10 28 -1 28 -8 0 -31 -18 -14 -26 -15 -41 -6 -15 8 -21 8 -24 -1 -3 -7 -12
-13 -21 -14 -11 0 -12 -2 -4 -6 17 -7 15 -23 -3 -23 -9 0 -26 -11 -38 -24 -12
-13 -33 -27 -47 -31 -14 -4 -51 -20 -82 -35 -31 -16 -65 -26 -76 -24 -10 3
-24 -2 -31 -10 -12 -14 -15 -14 -37 1 -23 14 -24 14 -24 -5 0 -16 -9 -21 -49
-26 -27 -3 -62 -13 -77 -20 -16 -8 -50 -17 -76 -21 -45 -6 -48 -5 -48 16 0 17
-3 19 -14 10 -7 -6 -22 -8 -31 -4 -14 5 -17 3 -12 -10 9 -24 -12 -31 -34 -11
-15 13 -22 15 -31 6 -15 -15 -51 -15 -66 0 -8 8 -15 8 -24 1 -7 -6 -20 -11
-28 -11 -8 -1 -37 -4 -64 -8 -26 -4 -51 -3 -55 2 -3 5 -18 15 -32 21 -22 10
-29 8 -43 -9 -17 -19 -18 -19 -37 -3 -15 14 -22 15 -33 6 -20 -16 -35 -6 -29
18 6 22 -16 39 -27 22 -4 -7 -23 -14 -43 -16 -30 -2 -36 0 -41 21 -8 32 -32
41 -54 21 -15 -13 -21 -14 -50 -2 -18 8 -35 21 -38 30 -3 8 -13 15 -21 15 -8
0 -11 -5 -8 -10 6 -9 -16 -40 -28 -40 -3 0 -7 10 -10 21 -4 14 -11 20 -21 16
-19 -8 -35 13 -50 63 -11 39 -31 55 -31 27 0 -8 -7 -24 -16 -37 l-15 -23 -34
32 c-19 17 -46 34 -58 38 -13 3 -43 16 -65 28 -30 16 -41 28 -40 43 2 15 -2
19 -17 15 -13 -3 -31 7 -56 31 -21 21 -47 36 -61 36 -16 0 -23 6 -23 19 0 10
-7 21 -15 25 -8 3 -15 15 -15 26 0 11 -4 20 -10 20 -5 0 -10 11 -10 25 0 27
-9 32 -27 14 -6 -6 -20 -8 -32 -4 -19 6 -25 18 -24 52 0 6 -9 14 -21 17 -11 3
-27 19 -35 36 -7 17 -23 35 -36 40 -25 9 -35 29 -35 66 0 16 -6 24 -18 24 -27
0 -62 29 -62 51 0 10 -5 19 -10 19 -6 0 -15 11 -20 25 -5 14 -14 25 -20 25 -5
0 -12 11 -16 24 -3 14 -17 32 -30 41 -16 10 -24 25 -24 44 0 17 -6 31 -16 35
-9 3 -14 13 -10 21 3 9 -3 19 -14 25 -11 6 -20 16 -20 22 0 7 -10 22 -22 35
-12 13 -16 23 -10 23 19 0 14 34 -9 58 -13 15 -18 29 -14 43 4 12 0 31 -11 47
-12 18 -18 47 -19 87 0 33 -4 67 -9 75 -6 8 -11 39 -11 70 -1 30 -7 67 -12 81
-17 38 -18 111 -4 138 11 19 10 26 -1 37 -11 11 -13 27 -7 67 4 29 8 72 8 97
1 35 6 48 23 59 20 12 20 14 4 23 -16 9 -16 12 -2 33 9 13 12 26 7 29 -19 12
21 136 43 136 7 0 10 17 7 46 -2 25 2 51 8 57 6 6 11 19 11 29 0 12 6 18 18
16 14 -3 16 4 14 37 -3 30 2 45 16 58 12 11 18 26 15 38 -3 10 0 19 6 19 6 0
11 7 11 15 0 9 7 18 16 22 8 3 13 12 10 20 -3 7 1 16 9 19 8 4 15 14 15 24 0
10 7 21 16 24 9 3 14 13 11 20 -3 8 0 17 8 20 8 3 11 13 8 24 -3 14 2 21 20
26 24 6 64 53 53 63 -6 7 38 43 52 43 5 0 13 15 18 33 6 17 16 32 24 32 9 0
16 11 18 28 4 31 52 62 84 54 11 -3 21 0 25 9 3 8 11 14 19 14 7 0 18 9 24 20
6 11 18 20 26 20 8 0 22 16 30 36 11 27 19 34 32 29 9 -4 26 -10 37 -13 17 -5
18 -3 7 11 -14 17 -9 37 9 37 6 0 21 13 35 29 27 32 58 37 86 14 11 -10 18
-11 23 -4 10 17 -4 31 -31 31 -13 0 -24 5 -24 10 0 13 33 13 46 0 8 -8 21 3
45 34 29 39 42 47 89 57 30 7 68 23 83 36 16 13 39 23 52 23 12 0 28 7 35 15
7 8 23 15 36 15 12 0 26 5 30 11 3 6 17 8 31 5 13 -4 29 -3 36 1 7 4 28 13 47
20 27 9 36 9 42 0 6 -9 8 -9 8 1 0 6 11 12 23 12 13 0 27 3 31 7 4 4 22 6 41
5 18 -2 36 1 39 6 3 6 14 8 24 6 9 -3 28 -1 42 5 32 12 47 13 54 3z m-1884
-812 c0 -5 -8 -10 -17 -10 -15 0 -16 2 -3 10 19 12 20 12 20 0z m-180 -754 c0
-11 -19 -15 -25 -6 -3 5 1 10 9 10 9 0 16 -2 16 -4z"/>
<path d="M1840 4490 c0 -5 5 -10 10 -10 6 0 10 -9 10 -21 0 -18 -4 -20 -29
-14 -19 4 -41 0 -60 -10 -35 -18 -41 -35 -11 -35 11 0 20 -4 20 -10 0 -5 -6
-10 -13 -10 -16 0 -67 -52 -67 -68 0 -6 -8 -26 -18 -44 -13 -24 -19 -58 -21
-122 -1 -49 -5 -94 -9 -100 -3 -6 -7 -63 -8 -128 -2 -64 -8 -127 -14 -139 -9
-15 -9 -28 -1 -47 6 -15 10 -58 10 -97 -2 -114 3 -198 11 -214 19 -36 40 -90
40 -101 0 -6 4 -8 10 -5 5 3 30 -1 55 -9 82 -28 141 -4 181 75 25 50 26 59 27
239 2 169 4 190 21 209 15 16 16 24 7 35 -6 7 -9 21 -5 30 3 9 1 23 -5 30 -8
9 -8 16 -2 20 11 7 8 91 -4 119 -5 11 -1 25 10 37 13 15 16 28 10 52 -3 18 -9
67 -11 108 -3 41 -9 79 -15 85 -5 5 -9 16 -9 25 0 17 -66 90 -81 90 -5 0 -9 9
-9 20 0 11 -7 20 -15 20 -8 0 -15 -4 -15 -10z"/>
<path d="M2685 4450 c4 -6 11 -8 16 -5 14 9 11 15 -7 15 -8 0 -12 -5 -9 -10z"/>
<path d="M2790 4430 c0 -5 7 -10 15 -10 8 0 15 5 15 10 0 6 -7 10 -15 10 -8 0
-15 -4 -15 -10z"/>
<path d="M2680 4410 c0 -5 5 -10 11 -10 5 0 7 5 4 10 -3 6 -8 10 -11 10 -2 0
-4 -4 -4 -10z"/>
<path d="M2797 4379 c-16 -4 -34 -13 -41 -18 -8 -6 -21 -8 -30 -5 -10 4 -25
-1 -36 -11 -17 -16 -18 -19 -4 -40 13 -20 13 -25 -4 -45 -18 -22 -18 -25 -3
-52 14 -24 14 -31 2 -50 -12 -19 -11 -24 7 -39 28 -22 52 -92 52 -150 0 -31 5
-49 14 -52 17 -7 26 13 26 59 0 19 5 34 11 34 16 0 119 -70 119 -81 0 -5 8 -9
18 -9 9 -1 32 -14 51 -30 26 -22 32 -34 28 -52 -8 -31 -67 -107 -89 -113 -9
-3 -18 -16 -20 -28 -2 -12 -12 -26 -23 -31 -12 -5 -29 -27 -40 -50 -11 -23
-31 -57 -46 -76 -48 -65 -57 -129 -21 -156 9 -6 13 -20 10 -32 -7 -24 17 -37
93 -51 81 -14 138 24 184 124 15 33 32 69 38 80 6 11 17 32 24 47 8 15 19 30
24 34 6 3 26 31 46 61 19 30 41 57 49 60 8 3 30 -8 49 -23 70 -58 164 -127
275 -201 14 -10 41 -31 61 -49 40 -34 125 -63 174 -59 17 2 34 4 38 4 20 2 77
78 77 102 0 63 -12 87 -59 117 -25 17 -59 44 -75 61 -17 17 -35 31 -41 31 -6
0 -24 14 -41 31 -16 17 -42 38 -59 46 -16 9 -62 46 -102 82 -57 52 -71 70 -66
86 3 11 12 24 20 28 7 5 24 20 36 33 12 14 32 36 45 50 12 14 22 28 22 32 0 9
119 122 152 144 21 14 78 98 78 114 0 2 -7 4 -15 4 -9 0 -18 7 -21 15 -4 8
-17 15 -30 15 -26 0 -98 -34 -129 -61 -11 -9 -45 -31 -75 -47 -111 -59 -191
-105 -259 -149 l-34 -22 -38 19 c-21 11 -42 26 -46 32 -4 7 -26 26 -47 43 -37
27 -117 105 -176 172 -21 23 -33 28 -75 29 -27 1 -63 -2 -78 -7z"/>
<path d="M4110 4090 c0 -5 7 -10 16 -10 8 0 12 5 9 10 -3 6 -10 10 -16 10 -5
0 -9 -4 -9 -10z"/>
<path d="M4090 3739 c0 -5 5 -7 10 -4 6 3 10 8 10 11 0 2 -4 4 -10 4 -5 0 -10
-5 -10 -11z"/>
<path d="M4146 3741 c-4 -7 -5 -15 -2 -18 9 -9 19 4 14 18 -4 11 -6 11 -12 0z"/>
<path d="M4105 3630 c-4 -6 -3 -16 3 -22 13 -13 23 4 13 21 -7 10 -10 10 -16
1z"/>
<path d="M4370 3630 c0 -5 7 -10 15 -10 8 0 15 5 15 10 0 6 -7 10 -15 10 -8 0
-15 -4 -15 -10z"/>
<path d="M4355 3586 c-19 -14 -19 -15 8 -21 34 -9 46 0 26 20 -13 13 -17 13
-34 1z"/>
<path d="M4230 3545 c0 -8 5 -15 10 -15 6 0 10 7 10 15 0 8 -4 15 -10 15 -5 0
-10 -7 -10 -15z"/>
<path d="M4050 3530 c0 -5 -13 -22 -29 -39 -15 -16 -38 -50 -50 -75 -13 -25
-27 -46 -32 -46 -5 0 -9 -8 -9 -18 0 -11 -9 -27 -20 -37 -11 -10 -17 -22 -14
-27 4 -6 -3 -22 -13 -37 -11 -14 -24 -38 -28 -51 -13 -45 -80 -160 -92 -160
-7 0 -10 -7 -7 -15 4 -8 -1 -17 -10 -21 -9 -3 -16 -13 -16 -20 0 -29 -39 -90
-65 -102 -15 -7 -25 -18 -22 -26 9 -22 -77 -136 -103 -136 -5 0 -10 -6 -10
-13 0 -11 -72 -84 -192 -195 -16 -14 -28 -29 -28 -34 0 -4 -7 -8 -15 -8 -9 0
-18 -6 -21 -14 -6 -15 -96 -76 -112 -76 -5 0 -13 -7 -16 -16 -4 -10 -14 -14
-26 -11 -13 3 -26 -3 -39 -19 -10 -13 -25 -24 -33 -24 -8 0 -23 -9 -33 -20
-10 -11 -24 -20 -30 -20 -7 0 -18 -7 -25 -15 -7 -8 -24 -15 -39 -15 -15 0 -36
-7 -48 -15 -12 -8 -28 -12 -37 -9 -8 3 -23 -2 -33 -11 -12 -13 -27 -16 -57
-12 -25 4 -53 0 -75 -10 -57 -26 -300 -28 -388 -4 -109 30 -233 80 -233 93 0
5 -8 8 -18 8 -10 0 -33 13 -52 30 -19 16 -38 29 -42 30 -13 0 -48 34 -48 45 0
6 -14 16 -31 22 -27 10 -30 16 -25 37 7 28 -9 45 -18 19 -5 -13 -14 -7 -44 28
-20 24 -51 59 -68 76 -17 18 -64 83 -104 145 -40 62 -81 125 -91 139 -10 15
-28 58 -39 95 -17 53 -31 78 -62 106 -35 33 -43 36 -61 26 -53 -28 -73 -83
-56 -154 17 -71 38 -136 53 -159 7 -11 19 -38 26 -60 7 -22 19 -49 26 -60 7
-11 22 -44 34 -74 11 -29 36 -72 54 -95 18 -22 40 -55 49 -72 27 -53 143 -176
208 -220 19 -13 45 -38 58 -54 12 -17 30 -30 40 -30 10 0 30 -9 44 -20 14 -11
28 -20 31 -20 3 0 28 -13 54 -30 27 -16 58 -30 69 -30 11 0 31 -8 44 -18 33
-26 101 -49 183 -62 38 -6 79 -16 90 -22 47 -25 354 -23 436 4 19 6 41 12 50
13 39 4 91 18 96 26 3 5 14 9 26 9 11 0 31 9 45 20 14 11 38 20 53 20 15 0 33
7 40 15 7 8 19 15 27 15 19 0 183 81 183 90 0 4 17 16 37 25 46 22 188 118
224 151 14 13 33 24 42 24 9 0 17 5 17 11 0 13 275 289 289 289 5 0 14 14 20
30 5 17 14 30 19 30 5 0 13 10 17 23 7 18 9 14 14 -23 5 -36 10 -46 27 -48 20
-3 22 4 34 110 12 111 30 163 53 155 9 -3 13 -66 17 -223 5 -208 6 -219 24
-219 31 0 37 42 43 310 6 255 11 295 38 295 19 0 19 5 -1 35 -9 14 -12 25 -6
25 6 0 18 17 27 38 9 20 23 52 31 69 7 18 11 39 8 48 -4 8 -1 15 4 15 19 0 26
90 10 119 -9 14 -13 32 -11 39 3 6 0 12 -6 12 -6 0 -11 6 -11 14 0 7 -13 16
-30 20 -22 4 -30 11 -30 26 0 17 -3 19 -19 10 -15 -7 -23 -6 -35 5 -16 17
-106 21 -106 5z"/>
<path d="M4340 3531 c0 -6 5 -13 10 -16 6 -3 10 1 10 9 0 9 -4 16 -10 16 -5 0
-10 -4 -10 -9z"/>
<path d="M4261 3084 c0 -11 3 -14 6 -6 3 7 2 16 -1 19 -3 4 -6 -2 -5 -13z"/>
<path d="M1770 2100 c0 -5 5 -10 10 -10 6 0 10 5 10 10 0 6 -4 10 -10 10 -5 0
-10 -4 -10 -10z"/>
<path d="M1840 2011 c0 -5 7 -11 15 -15 9 -3 15 0 15 9 0 8 -7 15 -15 15 -8 0
-15 -4 -15 -9z"/>
<path d="M1588 1943 c7 -3 16 -2 19 1 4 3 -2 6 -13 5 -11 0 -14 -3 -6 -6z"/>
<path d="M2526 1484 c-8 -22 -1 -28 19 -17 14 8 14 11 2 22 -12 9 -16 8 -21
-5z"/>
<path d="M1925 5310 c-3 -5 -1 -10 4 -10 6 0 11 5 11 10 0 6 -2 10 -4 10 -3 0
-8 -4 -11 -10z"/>
<path d="M1986 5311 c-4 -7 -5 -15 -2 -18 9 -9 19 4 14 18 -4 11 -6 11 -12 0z"/>
<path d="M1770 5195 c0 -8 5 -15 10 -15 6 0 10 7 10 15 0 8 -4 15 -10 15 -5 0
-10 -7 -10 -15z"/>
<path d="M1645 5090 c3 -5 12 -7 20 -3 21 7 19 13 -6 13 -11 0 -18 -4 -14 -10z"/>
<path d="M798 4253 c7 -3 16 -2 19 1 4 3 -2 6 -13 5 -11 0 -14 -3 -6 -6z"/>
<path d="M810 4205 c-10 -12 -9 -16 5 -21 19 -8 40 9 31 25 -10 15 -21 14 -36
-4z"/>
<path d="M700 4170 c0 -5 7 -10 15 -10 8 0 15 5 15 10 0 6 -7 10 -15 10 -8 0
-15 -4 -15 -10z"/>
<path d="M5120 3565 c0 -8 7 -15 15 -15 8 0 15 4 15 9 0 5 -7 11 -15 15 -9 3
-15 0 -15 -9z"/>
<path d="M455 3470 c-3 -5 1 -10 9 -10 9 0 16 5 16 10 0 6 -4 10 -9 10 -6 0
-13 -4 -16 -10z"/>
<path d="M570 3454 c0 -8 5 -12 10 -9 6 3 10 10 10 16 0 5 -4 9 -10 9 -5 0
-10 -7 -10 -16z"/>
<path d="M5140 3449 c0 -11 4 -18 10 -14 5 3 7 12 3 20 -7 21 -13 19 -13 -6z"/>
<path d="M575 3400 c3 -5 13 -10 21 -10 8 0 14 5 14 10 0 6 -9 10 -21 10 -11
0 -17 -4 -14 -10z"/>
<path d="M4980 3355 c0 -9 5 -15 11 -13 6 2 11 8 11 13 0 5 -5 11 -11 13 -6 2
-11 -4 -11 -13z"/>
<path d="M501 3321 c-10 -6 -10 -10 -1 -16 13 -8 24 -1 19 14 -3 6 -10 7 -18
2z"/>
<path d="M4940 3115 c0 -8 5 -15 10 -15 6 0 10 7 10 15 0 8 -4 15 -10 15 -5 0
-10 -7 -10 -15z"/>
<path d="M5022 3119 c2 -6 8 -10 13 -10 5 0 11 4 13 10 2 6 -4 11 -13 11 -9 0
-15 -5 -13 -11z"/>
<path d="M4978 2998 c-10 -12 -15 -25 -12 -30 7 -11 37 28 32 42 -2 5 -11 0
-20 -12z"/>
<path d="M4960 2910 c0 -5 5 -10 10 -10 6 0 10 5 10 10 0 6 -4 10 -10 10 -5 0
-10 -4 -10 -10z"/>
<path d="M4822 2360 c0 -14 2 -19 5 -12 2 6 2 18 0 25 -3 6 -5 1 -5 -13z"/>
<path d="M4430 1650 c0 -19 3 -21 12 -12 9 9 9 15 0 24 -9 9 -12 7 -12 -12z"/>
<path d="M4426 1541 c-4 -5 -2 -12 3 -15 5 -4 12 -2 15 3 4 5 2 12 -3 15 -5 4
-12 2 -15 -3z"/>
<path d="M1620 1280 c0 -5 5 -10 10 -10 6 0 10 5 10 10 0 6 -4 10 -10 10 -5 0
-10 -4 -10 -10z"/>
<path d="M4002 1201 c2 -7 7 -12 11 -12 12 1 9 15 -3 20 -7 2 -11 -2 -8 -8z"/>
<path d="M1877 1158 c-2 -13 -8 -31 -12 -40 -5 -12 -3 -18 7 -18 12 0 38 51
38 73 0 18 -28 4 -33 -15z"/>
<path d="M1640 1150 c0 -5 5 -10 10 -10 6 0 10 5 10 10 0 6 -4 10 -10 10 -5 0
-10 -4 -10 -10z"/>
<path d="M1520 1130 c0 -5 7 -10 15 -10 8 0 15 5 15 10 0 6 -7 10 -15 10 -8 0
-15 -4 -15 -10z"/>
<path d="M1630 1090 c0 -5 7 -10 15 -10 8 0 15 5 15 10 0 6 -7 10 -15 10 -8 0
-15 -4 -15 -10z"/>
<path d="M2041 1066 c-17 -20 -10 -29 19 -24 19 3 19 5 8 21 -13 17 -15 17
-27 3z"/>
<path d="M1770 1050 c0 -5 5 -10 10 -10 6 0 10 5 10 10 0 6 -4 10 -10 10 -5 0
-10 -4 -10 -10z"/>
<path d="M1815 1010 c-3 -5 -1 -10 4 -10 6 0 11 5 11 10 0 6 -2 10 -4 10 -3 0
-8 -4 -11 -10z"/>
<path d="M2817 944 c-3 -4 -1 -16 4 -27 9 -16 13 -17 20 -6 13 21 11 39 -4 39
-8 0 -17 -3 -20 -6z"/>
<path d="M2650 880 c0 -5 7 -10 15 -10 8 0 15 5 15 10 0 6 -7 10 -15 10 -8 0
-15 -4 -15 -10z"/>
</g>
</svg>
